# xmcd CD database file
#
# Track frame offsets:
#	150
#	29476
#	60731
#	91679
#	124555
#	144114
#	172705
#	238990
#	265462
#	289781
#	320152
#
# Disc length: 4410 seconds
#
# Revision: 0
# Processed by: cddbd v1.4PL0 Copyright (c) Steve Scherf et al.
# Submitted via: CDex 1.50
#
DISCID=9811380b
DTITLE=Mike Jones - Streches Out (in Las Vegas)
DYEAR=2001
DGENRE=Jazz
TTITLE0=I Can't Give You Anything But Love
TTITLE1=Gone With The Wind
TTITLE2=On The Sunny Side Of The Street
TTITLE3=Baby, Baby, All The Time
TTITLE4=Whispering/Groovin' High
TTITLE5=Stars Fell On Alabama
TTITLE6=One Morning In May/The Nearness Of You/Lazy River
TTITLE7=Dream Dancing
TTITLE8=Tangerine
TTITLE9=How Deep Is The Ocean?
TTITLE10=The Curse Of An Aching Heart
EXTD=YEAR: 2001
EXTT0=
EXTT1=
EXTT2=
EXTT3=
EXTT4=
EXTT5=
EXTT6=
EXTT7=
EXTT8=
EXTT9=
EXTT10=
PLAYORDER=
